<svg width="1411.0674804687499px" height="242.02003173828123px" xmlns="http://www.w3.org/2000/svg" viewBox="-455.53374023437493 -46.01001586914062 1411.0674804687499 242.02003173828123" style="background: none;" preserveAspectRatio="xMidYMid"><defs><filter id="editing-vintage" x="-100%" y="-100%" width="300%" height="300%"><feConvolveMatrix in="SourceGraphic" result="extrude" order="9,9" divisor="1" kernelMatrix="1,0,0,0,0,0,0,0,0,0,1,0,0,0,0,0,0,0,0,0,1,0,0,0,0,0,0,0,0,0,1,0,0,0,0,0,0,0,0,0,1,0,0,0,0,0,0,0,0,0,1,0,0,0,0,0,0,0,0,0,1,0,0,0,0,0,0,0,0,0,1,0,0,0,0,0,0,0,0,0,1"> </feConvolveMatrix><feFlood flood-color="#900" result="flood-extrude"></feFlood><feComposite operator="in" in="flood-extrude" in2="extrude" result="extrude-color"></feComposite><feOffset dx="5" dy="5" in="extrude-color" result="extrude-offset"></feOffset><feColorMatrix in="SourceGraphic" result="stroke" type="matrix" values="0 0 0 0 0 0 0 0 0 0 0 0 0 0 0 0 1 0 0 0 "></feColorMatrix><feColorMatrix in="SourceGraphic" result="fill" type="matrix" values="0 0 0 0 0 0 0 0 0 0 0 0 0 0 0 1 0 0 1 0 "></feColorMatrix><feConvolveMatrix in="stroke" result="inner-shadow" order="5,5" divisor="1" kernelMatrix="1 0 0 0 0 0 1 0 0 0 0 0 1 0 0 0 0 0 1 0 0 0 0 0 1 "></feConvolveMatrix><feOffset dx="1" dy="1" in="inner-shadow" result="offset"></feOffset><feComposite operator="in" in="offset" in2="SourceAlpha" result="comp"></feComposite><feFlood flood-color="#000" result="flood3"></feFlood><feComposite operator="in" in="flood3" in2="comp" result="comp2"></feComposite><feColorMatrix in="comp2" result="comp3" type="matrix" values="1 0 0 0 0 0 1 0 0 0 0 0 1 0 0 0 0 0 0.5 0 "></feColorMatrix><feFlood flood-color="#f00" result="flood1"></feFlood><feComposite operator="in" in="flood1" in2="fill" result="fill2"></feComposite><feFlood flood-color="#fff" result="flood2"></feFlood><feComposite operator="in" in="flood2" in2="stroke" result="stroke2"></feComposite><feMerge result="obj"><feMergeNode in="extrude-offset"></feMergeNode><feMergeNode in="fill2"></feMergeNode><feMergeNode in="comp3"></feMergeNode></feMerge><feConvolveMatrix in="SourceAlpha" result="shadow" order="9,9" divisor="1" kernelMatrix="1,0,0,0,0,0,0,0,0,0,1,0,0,0,0,0,0,0,0,0,1,0,0,0,0,0,0,0,0,0,1,0,0,0,0,0,0,0,0,0,1,0,0,0,0,0,0,0,0,0,1,0,0,0,0,0,0,0,0,0,1,0,0,0,0,0,0,0,0,0,1,0,0,0,0,0,0,0,0,0,1"></feConvolveMatrix><feOffset dx="15" dy="15" in="shadow" result="shadow-offset"></feOffset><feFlood flood-color="#444444" result="flood-shadow"></feFlood><feComposite operator="in" in="flood-shadow" in2="shadow-offset" result="shadow-color"></feComposite><feMerge><feMergeNode in="shadow-color"></feMergeNode><feMergeNode in="obj"></feMergeNode></feMerge></filter></defs><g transform="translate(-9,-9)"><g filter="url(#editing-vintage)"><g transform="translate(-266.76497077941895, 149.38999938964844)"><path d="M96.65-114.03L96.65-114.03Q98.99-114.03 100.38-112.57L100.38-112.57L100.38-112.57Q101.76-111.11 101.76-108.92L101.76-108.92L101.76-108.92Q101.76-107.46 101.03-105.70L101.03-105.70L57.52-3.65L57.52-3.65Q55.92 0 52.41 0L52.41 0L52.41 0Q50.52 0 49.27-0.80L49.27-0.80L49.27-0.80Q48.03-1.61 47.16-3.65L47.16-3.65L3.80-105.12L3.80-105.12Q2.92-107.31 2.92-108.92L2.92-108.92L2.92-108.92Q2.92-111.25 4.45-112.64L4.45-112.64L4.45-112.64Q5.99-114.03 8.47-114.03L8.47-114.03L8.47-114.03Q12.26-114.03 13.72-110.38L13.72-110.38L52.41-17.81L90.96-110.08L90.96-110.08Q91.83-112.27 93.15-113.15L93.15-113.15L93.15-113.15Q94.46-114.03 96.65-114.03L96.65-114.03ZM120.01-74.17L120.01-74.17Q120.01-76.65 121.62-78.26L121.62-78.26L121.62-78.26Q123.22-79.86 125.71-79.86L125.71-79.86L125.71-79.86Q128.19-79.86 129.72-78.26L129.72-78.26L129.72-78.26Q131.25-76.65 131.25-74.17L131.25-74.17L131.25-5.69L131.25-5.69Q131.25-3.21 129.72-1.61L129.72-1.61L129.72-1.61Q128.19 0 125.71 0L125.71 0L125.71 0Q123.22 0 121.62-1.61L121.62-1.61L121.62-1.61Q120.01-3.21 120.01-5.69L120.01-5.69L120.01-74.17ZM125.71-110.96L125.71-110.96Q128.92-110.96 131.25-108.77L131.25-108.77L131.25-108.77Q133.59-106.58 133.59-103.08L133.59-103.08L133.59-103.08Q133.59-99.72 131.25-97.38L131.25-97.38L131.25-97.38Q128.92-95.05 125.56-95.05L125.56-95.05L125.56-95.05Q122.20-95.05 119.94-97.38L119.94-97.38L119.94-97.38Q117.68-99.72 117.68-103.08L117.68-103.08L117.68-103.08Q117.68-106.58 120.01-108.77L120.01-108.77L120.01-108.77Q122.35-110.96 125.71-110.96L125.71-110.96ZM236.67-75.63L236.67-75.63Q236.81-75.19 236.81-74.31L236.81-74.31L236.81-40.00L236.81-40.00Q236.81-28.62 231.48-19.27L231.48-19.27L231.48-19.27Q226.15-9.93 216.88-4.60L216.88-4.60L216.88-4.60Q207.61 0.73 196.22 0.73L196.22 0.73L196.22 0.73Q184.84 0.73 175.56-4.60L175.56-4.60L175.56-4.60Q166.29-9.93 160.96-19.27L160.96-19.27L160.96-19.27Q155.64-28.62 155.64-40.00L155.64-40.00L155.64-40.00Q155.64-51.39 160.82-60.66L160.82-60.66L160.82-60.66Q166.00-69.93 174.98-75.26L174.98-75.26L174.98-75.26Q183.96-80.59 195.06-80.59L195.06-80.59L195.06-80.59Q204.55-80.59 212.43-76.58L212.43-76.58L212.43-76.58Q220.31-72.56 225.42-65.55L225.42-65.55L225.42-108.33L225.42-108.33Q225.42-110.81 227.03-112.42L227.03-112.42L227.03-112.42Q228.64-114.03 231.12-114.03L231.12-114.03L231.12-114.03Q233.60-114.03 235.13-112.42L235.13-112.42L235.13-112.42Q236.67-110.81 236.67-108.33L236.67-108.33L236.67-75.63ZM196.22-9.49L196.22-9.49Q204.55-9.49 211.26-13.50L211.26-13.50L211.26-13.50Q217.98-17.52 221.85-24.45L221.85-24.45L221.85-24.45Q225.72-31.39 225.72-40.00L225.72-40.00L225.72-40.00Q225.72-42.49 225.57-43.65L225.57-43.65L225.57-43.65Q225.42-43.95 225.42-44.38L225.42-44.38L225.42-44.38Q223.96-55.77 215.86-63.07L215.86-63.07L215.86-63.07Q207.76-70.37 196.22-70.37L196.22-70.37L196.22-70.37Q187.90-70.37 181.11-66.43L181.11-66.43L181.11-66.43Q174.32-62.49 170.45-55.55L170.45-55.55L170.45-55.55Q166.59-48.62 166.59-40.00L166.59-40.00L166.59-40.00Q166.59-31.39 170.45-24.45L170.45-24.45L170.45-24.45Q174.32-17.52 181.11-13.50L181.11-13.50L181.11-13.50Q187.90-9.49 196.22-9.49L196.22-9.49ZM297.11-80.59L297.11-80.59Q307.91-80.59 316.24-75.55L316.24-75.55L316.24-75.55Q324.56-70.52 329.16-61.61L329.16-61.61L329.16-61.61Q333.76-52.71 333.76-41.32L333.76-41.32L333.76-41.32Q333.76-38.98 332.30-37.59L332.30-37.59L332.30-37.59Q330.84-36.21 328.50-36.21L328.50-36.21L269.52-36.21L269.52-36.21Q270.68-24.24 278.86-16.79L278.86-16.79L278.86-16.79Q287.04-9.34 299.30-9.34L299.30-9.34L299.30-9.34Q304.56-9.34 309.88-11.17L309.88-11.17L309.88-11.17Q315.21-12.99 318.43-15.77L318.43-15.77L318.43-15.77Q320.32-17.23 322.37-17.23L322.37-17.23L322.37-17.23Q323.97-17.23 325.58-16.06L325.58-16.06L325.58-16.06Q327.48-14.31 327.48-12.12L327.48-12.12L327.48-12.12Q327.48-10.22 325.87-8.76L325.87-8.76L325.87-8.76Q321.05-4.67 313.61-1.97L313.61-1.97L313.61-1.97Q306.16 0.73 299.30 0.73L299.30 0.73L299.30 0.73Q287.62 0.73 278.42-4.45L278.42-4.45L278.42-4.45Q269.22-9.64 264.04-18.91L264.04-18.91L264.04-18.91Q258.86-28.18 258.86-39.86L258.86-39.86L258.86-39.86Q258.86-51.68 263.75-60.95L263.75-60.95L263.75-60.95Q268.64-70.23 277.33-75.41L277.33-75.41L277.33-75.41Q286.01-80.59 297.11-80.59L297.11-80.59ZM297.11-70.52L297.11-70.52Q286.01-70.52 278.71-63.66L278.71-63.66L278.71-63.66Q271.41-56.79 269.81-45.55L269.81-45.55L323.24-45.55L323.24-45.55Q322.08-56.79 315.07-63.66L315.07-63.66L315.07-63.66Q308.06-70.52 297.11-70.52L297.11-70.52ZM389.09-80.59L389.09-80.59Q400.62-80.59 409.82-75.34L409.82-75.34L409.82-75.34Q419.02-70.08 424.35-60.74L424.35-60.74L424.35-60.74Q429.68-51.39 429.68-39.86L429.68-39.86L429.68-39.86Q429.68-28.32 424.42-19.05L424.42-19.05L424.42-19.05Q419.17-9.78 409.89-4.53L409.89-4.53L409.89-4.53Q400.62 0.73 389.09 0.73L389.09 0.73L389.09 0.73Q377.56 0.73 368.29-4.53L368.29-4.53L368.29-4.53Q359.01-9.78 353.76-19.05L353.76-19.05L353.76-19.05Q348.50-28.32 348.50-39.86L348.50-39.86L348.50-39.86Q348.50-51.39 353.76-60.74L353.76-60.74L353.76-60.74Q359.01-70.08 368.29-75.34L368.29-75.34L368.29-75.34Q377.56-80.59 389.09-80.59L389.09-80.59ZM389.09-70.37L389.09-70.37Q380.77-70.37 373.98-66.43L373.98-66.43L373.98-66.43Q367.19-62.49 363.32-55.55L363.32-55.55L363.32-55.55Q359.45-48.62 359.45-39.86L359.45-39.86L359.45-39.86Q359.45-31.24 363.32-24.31L363.32-24.31L363.32-24.31Q367.19-17.37 373.98-13.43L373.98-13.43L373.98-13.43Q380.77-9.49 389.09-9.49L389.09-9.49L389.09-9.49Q397.56-9.49 404.27-13.43L404.27-13.43L404.27-13.43Q410.99-17.37 414.79-24.31L414.79-24.31L414.79-24.31Q418.58-31.24 418.58-39.86L418.58-39.86L418.58-39.86Q418.58-48.62 414.79-55.55L414.79-55.55L414.79-55.55Q410.99-62.49 404.27-66.43L404.27-66.43L404.27-66.43Q397.56-70.37 389.09-70.37L389.09-70.37ZM564.29-10.80L564.29-10.80Q566.77-10.80 568.38-9.27L568.38-9.27L568.38-9.27Q569.98-7.74 569.98-5.40L569.98-5.40L569.98-5.40Q569.98-3.07 568.38-1.53L568.38-1.53L568.38-1.53Q566.77 0 564.29 0L564.29 0L501.51 0L501.51 0Q499.17 0 497.50-1.68L497.50-1.68L497.50-1.68Q495.82-3.36 495.82-5.69L495.82-5.69L495.82-108.33L495.82-108.33Q495.82-110.67 497.50-112.35L497.50-112.35L497.50-112.35Q499.17-114.03 501.51-114.03L501.51-114.03L501.51-114.03Q503.99-114.03 505.60-112.42L505.60-112.42L505.60-112.42Q507.20-110.81 507.20-108.33L507.20-108.33L507.20-10.80L564.29-10.80ZM589.11-74.17L589.11-74.17Q589.11-76.65 590.72-78.26L590.72-78.26L590.72-78.26Q592.32-79.86 594.80-79.86L594.80-79.86L594.80-79.86Q597.29-79.86 598.82-78.26L598.82-78.26L598.82-78.26Q600.35-76.65 600.35-74.17L600.35-74.17L600.35-5.69L600.35-5.69Q600.35-3.21 598.82-1.61L598.82-1.61L598.82-1.61Q597.29 0 594.80 0L594.80 0L594.80 0Q592.32 0 590.72-1.61L590.72-1.61L590.72-1.61Q589.11-3.21 589.11-5.69L589.11-5.69L589.11-74.17ZM594.80-110.96L594.80-110.96Q598.02-110.96 600.35-108.77L600.35-108.77L600.35-108.77Q602.69-106.58 602.69-103.08L602.69-103.08L602.69-103.08Q602.69-99.72 600.35-97.38L600.35-97.38L600.35-97.38Q598.02-95.05 594.66-95.05L594.66-95.05L594.66-95.05Q591.30-95.05 589.04-97.38L589.04-97.38L589.04-97.38Q586.77-99.72 586.77-103.08L586.77-103.08L586.77-103.08Q586.77-106.58 589.11-108.77L589.11-108.77L589.11-108.77Q591.45-110.96 594.80-110.96L594.80-110.96ZM629.11-75.63L629.11-75.63Q628.97-75.19 628.97-74.31L628.97-74.31L628.97-40.00L628.97-40.00Q628.97-28.62 634.30-19.27L634.30-19.27L634.30-19.27Q639.63-9.93 648.90-4.60L648.90-4.60L648.90-4.60Q658.17 0.73 669.56 0.73L669.56 0.73L669.56 0.73Q680.94 0.73 690.21-4.60L690.21-4.60L690.21-4.60Q699.49-9.93 704.81-19.27L704.81-19.27L704.81-19.27Q710.14-28.62 710.14-40.00L710.14-40.00L710.14-40.00Q710.14-51.39 704.96-60.66L704.96-60.66L704.96-60.66Q699.78-69.93 690.80-75.26L690.80-75.26L690.80-75.26Q681.82-80.59 670.72-80.59L670.72-80.59L670.72-80.59Q661.23-80.59 653.35-76.58L653.35-76.58L653.35-76.58Q645.47-72.56 640.36-65.55L640.36-65.55L640.36-108.33L640.36-108.33Q640.36-110.81 638.75-112.42L638.75-112.42L638.75-112.42Q637.14-114.03 634.66-114.03L634.66-114.03L634.66-114.03Q632.18-114.03 630.65-112.42L630.65-112.42L630.65-112.42Q629.11-110.81 629.11-108.33L629.11-108.33L629.11-75.63ZM669.56-9.49L669.56-9.49Q661.23-9.49 654.52-13.50L654.52-13.50L654.52-13.50Q647.80-17.52 643.93-24.45L643.93-24.45L643.93-24.45Q640.06-31.39 640.06-40.00L640.06-40.00L640.06-40.00Q640.06-42.49 640.21-43.65L640.21-43.65L640.21-43.65Q640.36-43.95 640.36-44.38L640.36-44.38L640.36-44.38Q641.82-55.77 649.92-63.07L649.92-63.07L649.92-63.07Q658.02-70.37 669.56-70.37L669.56-70.37L669.56-70.37Q677.88-70.37 684.67-66.43L684.67-66.43L684.67-66.43Q691.46-62.49 695.32-55.55L695.32-55.55L695.32-55.55Q699.19-48.62 699.19-40.00L699.19-40.00L699.19-40.00Q699.19-31.39 695.32-24.45L695.32-24.45L695.32-24.45Q691.46-17.52 684.67-13.50L684.67-13.50L684.67-13.50Q677.88-9.49 669.56-9.49L669.56-9.49ZM768.25-80.74L768.25-80.74Q774.38-80.74 777.96-79.13L777.96-79.13L777.96-79.13Q781.54-77.53 781.54-74.61L781.54-74.61L781.54-74.61Q781.54-73.73 781.39-73.29L781.39-73.29L781.39-73.29Q780.81-71.25 779.57-70.52L779.57-70.52L779.57-70.52Q778.33-69.79 776.14-69.79L776.14-69.79L776.14-69.79Q774.82-69.79 771.61-70.08L771.61-70.08L771.61-70.08Q770.44-70.23 768.11-70.23L768.11-70.23L768.11-70.23Q757.16-70.23 750.22-64.39L750.22-64.39L750.22-64.39Q743.29-58.55 743.29-49.20L743.29-49.20L743.29-5.55L743.29-5.55Q743.29-2.92 741.83-1.46L741.83-1.46L741.83-1.46Q740.37 0 737.74 0L737.74 0L737.74 0Q735.11 0 733.65-1.46L733.65-1.46L733.65-1.46Q732.19-2.92 732.19-5.55L732.19-5.55L732.19-74.31L732.19-74.31Q732.19-76.94 733.65-78.40L733.65-78.40L733.65-78.40Q735.11-79.86 737.74-79.86L737.74-79.86L737.74-79.86Q740.37-79.86 741.83-78.40L741.83-78.40L741.83-78.40Q743.29-76.94 743.29-74.31L743.29-74.31L743.29-67.89L743.29-67.89Q747.52-74.02 754.09-77.38L754.09-77.38L754.09-77.38Q760.66-80.74 768.25-80.74L768.25-80.74ZM835.41-80.59L835.41-80.59Q846.80-80.59 856.07-75.26L856.07-75.26L856.07-75.26Q865.34-69.93 870.67-60.59L870.67-60.59L870.67-60.59Q876.00-51.25 876.00-39.86L876.00-39.86L876.00-5.55L876.00-5.55Q876.00-3.21 874.39-1.61L874.39-1.61L874.39-1.61Q872.79 0 870.31 0L870.31 0L870.31 0Q867.82 0 866.22-1.53L866.22-1.53L866.22-1.53Q864.61-3.07 864.61-5.55L864.61-5.55L864.61-14.31L864.61-14.31Q859.50-7.30 851.62-3.28L851.62-3.28L851.62-3.28Q843.73 0.73 834.24 0.73L834.24 0.73L834.24 0.73Q823.15 0.73 814.17-4.60L814.17-4.60L814.17-4.60Q805.19-9.93 800.01-19.20L800.01-19.20L800.01-19.20Q794.82-28.47 794.82-39.86L794.82-39.86L794.82-39.86Q794.82-51.25 800.15-60.59L800.15-60.59L800.15-60.59Q805.48-69.93 814.75-75.26L814.75-75.26L814.75-75.26Q824.02-80.59 835.41-80.59L835.41-80.59ZM835.41-9.49L835.41-9.49Q843.73-9.49 850.45-13.43L850.45-13.43L850.45-13.43Q857.17-17.37 861.03-24.31L861.03-24.31L861.03-24.31Q864.90-31.24 864.90-39.86L864.90-39.86L864.90-39.86Q864.90-48.47 861.03-55.41L861.03-55.41L861.03-55.41Q857.17-62.34 850.45-66.36L850.45-66.36L850.45-66.36Q843.73-70.37 835.41-70.37L835.41-70.37L835.41-70.37Q827.09-70.37 820.30-66.36L820.30-66.36L820.30-66.36Q813.51-62.34 809.64-55.41L809.64-55.41L809.64-55.41Q805.77-48.47 805.77-39.86L805.77-39.86L805.77-39.86Q805.77-31.24 809.64-24.31L809.64-24.31L809.64-24.31Q813.51-17.37 820.30-13.43L820.30-13.43L820.30-13.43Q827.09-9.49 835.41-9.49L835.41-9.49ZM933.96-80.74L933.96-80.74Q940.09-80.74 943.67-79.13L943.67-79.13L943.67-79.13Q947.25-77.53 947.25-74.61L947.25-74.61L947.25-74.61Q947.25-73.73 947.10-73.29L947.10-73.29L947.10-73.29Q946.52-71.25 945.28-70.52L945.28-70.52L945.28-70.52Q944.04-69.79 941.85-69.79L941.85-69.79L941.85-69.79Q940.53-69.79 937.32-70.08L937.32-70.08L937.32-70.08Q936.15-70.23 933.82-70.23L933.82-70.23L933.82-70.23Q922.87-70.23 915.93-64.39L915.93-64.39L915.93-64.39Q909.00-58.55 909.00-49.20L909.00-49.20L909.00-5.55L909.00-5.55Q909.00-2.92 907.54-1.46L907.54-1.46L907.54-1.46Q906.08 0 903.45 0L903.45 0L903.45 0Q900.82 0 899.36-1.46L899.36-1.46L899.36-1.46Q897.90-2.92 897.90-5.55L897.90-5.55L897.90-74.31L897.90-74.31Q897.90-76.94 899.36-78.40L899.36-78.40L899.36-78.40Q900.82-79.86 903.45-79.86L903.45-79.86L903.45-79.86Q906.08-79.86 907.54-78.40L907.54-78.40L907.54-78.40Q909.00-76.94 909.00-74.31L909.00-74.31L909.00-67.89L909.00-67.89Q913.23-74.02 919.80-77.38L919.80-77.38L919.80-77.38Q926.37-80.74 933.96-80.74L933.96-80.74ZM1027.26-79.42L1027.26-79.42Q1030.61-78.11 1030.61-75.19L1030.61-75.19L1030.61-75.19Q1030.61-73.88 1030.03-72.56L1030.03-72.56L982.73 31.39L982.73 31.39Q981.41 34.75 978.49 34.75L978.49 34.75L978.49 34.75Q977.03 34.75 975.86 34.16L975.86 34.16L975.86 34.16Q972.51 32.85 972.51 29.78L972.51 29.78L972.51 29.78Q972.51 28.47 973.09 27.16L973.09 27.16L987.54-4.82L987.54-4.96L954.99-72.42L954.99-72.42Q954.40-73.58 954.40-75.04L954.40-75.04L954.40-75.04Q954.40-78.11 957.61-79.42L957.61-79.42L957.61-79.42Q958.78-80.01 960.24-80.01L960.24-80.01L960.24-80.01Q963.31-80.01 964.62-76.94L964.62-76.94L993.09-16.94L1020.25-76.80L1020.25-76.80Q1021.71-80.01 1024.63-80.01L1024.63-80.01L1024.63-80.01Q1025.94-80.01 1027.26-79.42L1027.26-79.42Z" fill="#f00" stroke="#0f0" stroke-width="1.8"></path></g></g><g><g transform="translate(-266.76497077941895, 149.38999938964844)"><path d="M96.65-114.03L96.65-114.03Q98.99-114.03 100.38-112.57L100.38-112.57L100.38-112.57Q101.76-111.11 101.76-108.92L101.76-108.92L101.76-108.92Q101.76-107.46 101.03-105.70L101.03-105.70L57.52-3.65L57.52-3.65Q55.92 0 52.41 0L52.41 0L52.41 0Q50.52 0 49.27-0.80L49.27-0.80L49.27-0.80Q48.03-1.61 47.16-3.65L47.16-3.65L3.80-105.12L3.80-105.12Q2.92-107.31 2.92-108.92L2.92-108.92L2.92-108.92Q2.92-111.25 4.45-112.64L4.45-112.64L4.45-112.64Q5.99-114.03 8.47-114.03L8.47-114.03L8.47-114.03Q12.26-114.03 13.72-110.38L13.72-110.38L52.41-17.81L90.96-110.08L90.96-110.08Q91.83-112.27 93.15-113.15L93.15-113.15L93.15-113.15Q94.46-114.03 96.65-114.03L96.65-114.03ZM120.01-74.17L120.01-74.17Q120.01-76.65 121.62-78.26L121.62-78.26L121.62-78.26Q123.22-79.86 125.71-79.86L125.71-79.86L125.71-79.86Q128.19-79.86 129.72-78.26L129.72-78.26L129.72-78.26Q131.25-76.65 131.25-74.17L131.25-74.17L131.25-5.69L131.25-5.69Q131.25-3.21 129.72-1.61L129.72-1.61L129.72-1.61Q128.19 0 125.71 0L125.71 0L125.71 0Q123.22 0 121.62-1.61L121.62-1.61L121.62-1.61Q120.01-3.21 120.01-5.69L120.01-5.69L120.01-74.17ZM125.71-110.96L125.71-110.96Q128.92-110.96 131.25-108.77L131.25-108.77L131.25-108.77Q133.59-106.58 133.59-103.08L133.59-103.08L133.59-103.08Q133.59-99.72 131.25-97.38L131.25-97.38L131.25-97.38Q128.92-95.05 125.56-95.05L125.56-95.05L125.56-95.05Q122.20-95.05 119.94-97.38L119.94-97.38L119.94-97.38Q117.68-99.72 117.68-103.08L117.68-103.08L117.68-103.08Q117.68-106.58 120.01-108.77L120.01-108.77L120.01-108.77Q122.35-110.96 125.71-110.96L125.71-110.96ZM236.67-75.63L236.67-75.63Q236.81-75.19 236.81-74.31L236.81-74.31L236.81-40.00L236.81-40.00Q236.81-28.62 231.48-19.27L231.48-19.27L231.48-19.27Q226.15-9.93 216.88-4.60L216.88-4.60L216.88-4.60Q207.61 0.73 196.22 0.73L196.22 0.73L196.22 0.73Q184.84 0.73 175.56-4.60L175.56-4.60L175.56-4.60Q166.29-9.93 160.96-19.27L160.96-19.27L160.96-19.27Q155.64-28.62 155.64-40.00L155.64-40.00L155.64-40.00Q155.64-51.39 160.82-60.66L160.82-60.66L160.82-60.66Q166.00-69.93 174.98-75.26L174.98-75.26L174.98-75.26Q183.96-80.59 195.06-80.59L195.06-80.59L195.06-80.59Q204.55-80.59 212.43-76.58L212.43-76.58L212.43-76.58Q220.31-72.56 225.42-65.55L225.42-65.55L225.42-108.33L225.42-108.33Q225.42-110.81 227.03-112.42L227.03-112.42L227.03-112.42Q228.64-114.03 231.12-114.03L231.12-114.03L231.12-114.03Q233.60-114.03 235.13-112.42L235.13-112.42L235.13-112.42Q236.67-110.81 236.67-108.33L236.67-108.33L236.67-75.63ZM196.22-9.49L196.22-9.49Q204.55-9.49 211.26-13.50L211.26-13.50L211.26-13.50Q217.98-17.52 221.85-24.45L221.85-24.45L221.85-24.45Q225.72-31.39 225.72-40.00L225.72-40.00L225.72-40.00Q225.72-42.49 225.57-43.65L225.57-43.65L225.57-43.65Q225.42-43.95 225.42-44.38L225.42-44.38L225.42-44.38Q223.96-55.77 215.86-63.07L215.86-63.07L215.86-63.07Q207.76-70.37 196.22-70.37L196.22-70.37L196.22-70.37Q187.90-70.37 181.11-66.43L181.11-66.43L181.11-66.43Q174.32-62.49 170.45-55.55L170.45-55.55L170.45-55.55Q166.59-48.62 166.59-40.00L166.59-40.00L166.59-40.00Q166.59-31.39 170.45-24.45L170.45-24.45L170.45-24.45Q174.32-17.52 181.11-13.50L181.11-13.50L181.11-13.50Q187.90-9.49 196.22-9.49L196.22-9.49ZM297.11-80.59L297.11-80.59Q307.91-80.59 316.24-75.55L316.24-75.55L316.24-75.55Q324.56-70.52 329.16-61.61L329.16-61.61L329.16-61.61Q333.76-52.71 333.76-41.32L333.76-41.32L333.76-41.32Q333.76-38.98 332.30-37.59L332.30-37.59L332.30-37.59Q330.84-36.21 328.50-36.21L328.50-36.21L269.52-36.21L269.52-36.21Q270.68-24.24 278.86-16.79L278.86-16.79L278.86-16.79Q287.04-9.34 299.30-9.34L299.30-9.34L299.30-9.34Q304.56-9.34 309.88-11.17L309.88-11.17L309.88-11.17Q315.21-12.99 318.43-15.77L318.43-15.77L318.43-15.77Q320.32-17.23 322.37-17.23L322.37-17.23L322.37-17.23Q323.97-17.23 325.58-16.06L325.58-16.06L325.58-16.06Q327.48-14.31 327.48-12.12L327.48-12.12L327.48-12.12Q327.48-10.22 325.87-8.76L325.87-8.76L325.87-8.76Q321.05-4.67 313.61-1.97L313.61-1.97L313.61-1.97Q306.16 0.73 299.30 0.73L299.30 0.73L299.30 0.73Q287.62 0.73 278.42-4.45L278.42-4.45L278.42-4.45Q269.22-9.64 264.04-18.91L264.04-18.91L264.04-18.91Q258.86-28.18 258.86-39.86L258.86-39.86L258.86-39.86Q258.86-51.68 263.75-60.95L263.75-60.95L263.75-60.95Q268.64-70.23 277.33-75.41L277.33-75.41L277.33-75.41Q286.01-80.59 297.11-80.59L297.11-80.59ZM297.11-70.52L297.11-70.52Q286.01-70.52 278.71-63.66L278.71-63.66L278.71-63.66Q271.41-56.79 269.81-45.55L269.81-45.55L323.24-45.55L323.24-45.55Q322.08-56.79 315.07-63.66L315.07-63.66L315.07-63.66Q308.06-70.52 297.11-70.52L297.11-70.52ZM389.09-80.59L389.09-80.59Q400.62-80.59 409.82-75.34L409.82-75.34L409.82-75.34Q419.02-70.08 424.35-60.74L424.35-60.74L424.35-60.74Q429.68-51.39 429.68-39.86L429.68-39.86L429.68-39.86Q429.68-28.32 424.42-19.05L424.42-19.05L424.42-19.05Q419.17-9.78 409.89-4.53L409.89-4.53L409.89-4.53Q400.62 0.73 389.09 0.73L389.09 0.73L389.09 0.73Q377.56 0.73 368.29-4.53L368.29-4.53L368.29-4.53Q359.01-9.78 353.76-19.05L353.76-19.05L353.76-19.05Q348.50-28.32 348.50-39.86L348.50-39.86L348.50-39.86Q348.50-51.39 353.76-60.74L353.76-60.74L353.76-60.74Q359.01-70.08 368.29-75.34L368.29-75.34L368.29-75.34Q377.56-80.59 389.09-80.59L389.09-80.59ZM389.09-70.37L389.09-70.37Q380.77-70.37 373.98-66.43L373.98-66.43L373.98-66.43Q367.19-62.49 363.32-55.55L363.32-55.55L363.32-55.55Q359.45-48.62 359.45-39.86L359.45-39.86L359.45-39.86Q359.45-31.24 363.32-24.31L363.32-24.31L363.32-24.31Q367.19-17.37 373.98-13.43L373.98-13.43L373.98-13.43Q380.77-9.49 389.09-9.49L389.09-9.49L389.09-9.49Q397.56-9.49 404.27-13.43L404.27-13.43L404.27-13.43Q410.99-17.37 414.79-24.31L414.79-24.31L414.79-24.31Q418.58-31.24 418.58-39.86L418.58-39.86L418.58-39.86Q418.58-48.62 414.79-55.55L414.79-55.55L414.79-55.55Q410.99-62.49 404.27-66.43L404.27-66.43L404.27-66.43Q397.56-70.37 389.09-70.37L389.09-70.37ZM564.29-10.80L564.29-10.80Q566.77-10.80 568.38-9.27L568.38-9.27L568.38-9.27Q569.98-7.74 569.98-5.40L569.98-5.40L569.98-5.40Q569.98-3.07 568.38-1.53L568.38-1.53L568.38-1.53Q566.77 0 564.29 0L564.29 0L501.51 0L501.51 0Q499.17 0 497.50-1.68L497.50-1.68L497.50-1.68Q495.82-3.36 495.82-5.69L495.82-5.69L495.82-108.33L495.82-108.33Q495.82-110.67 497.50-112.35L497.50-112.35L497.50-112.35Q499.17-114.03 501.51-114.03L501.51-114.03L501.51-114.03Q503.99-114.03 505.60-112.42L505.60-112.42L505.60-112.42Q507.20-110.81 507.20-108.33L507.20-108.33L507.20-10.80L564.29-10.80ZM589.11-74.17L589.11-74.17Q589.11-76.65 590.72-78.26L590.72-78.26L590.72-78.26Q592.32-79.86 594.80-79.86L594.80-79.86L594.80-79.86Q597.29-79.86 598.82-78.26L598.82-78.26L598.82-78.26Q600.35-76.65 600.35-74.17L600.35-74.17L600.35-5.69L600.35-5.69Q600.35-3.21 598.82-1.61L598.82-1.61L598.82-1.61Q597.29 0 594.80 0L594.80 0L594.80 0Q592.32 0 590.72-1.61L590.72-1.61L590.72-1.61Q589.11-3.21 589.11-5.69L589.11-5.69L589.11-74.17ZM594.80-110.96L594.80-110.96Q598.02-110.96 600.35-108.77L600.35-108.77L600.35-108.77Q602.69-106.58 602.69-103.08L602.69-103.08L602.69-103.08Q602.69-99.72 600.35-97.38L600.35-97.38L600.35-97.38Q598.02-95.05 594.66-95.05L594.66-95.05L594.66-95.05Q591.30-95.05 589.04-97.38L589.04-97.38L589.04-97.38Q586.77-99.72 586.77-103.08L586.77-103.08L586.77-103.08Q586.77-106.58 589.11-108.77L589.11-108.77L589.11-108.77Q591.45-110.96 594.80-110.96L594.80-110.96ZM629.11-75.63L629.11-75.63Q628.97-75.19 628.97-74.31L628.97-74.31L628.97-40.00L628.97-40.00Q628.97-28.62 634.30-19.27L634.30-19.27L634.30-19.27Q639.63-9.93 648.90-4.60L648.90-4.60L648.90-4.60Q658.17 0.73 669.56 0.73L669.56 0.73L669.56 0.73Q680.94 0.73 690.21-4.60L690.21-4.60L690.21-4.60Q699.49-9.93 704.81-19.27L704.81-19.27L704.81-19.27Q710.14-28.62 710.14-40.00L710.14-40.00L710.14-40.00Q710.14-51.39 704.96-60.66L704.96-60.66L704.96-60.66Q699.78-69.93 690.80-75.26L690.80-75.26L690.80-75.26Q681.82-80.59 670.72-80.59L670.72-80.59L670.72-80.59Q661.23-80.59 653.35-76.58L653.35-76.58L653.35-76.58Q645.47-72.56 640.36-65.55L640.36-65.55L640.36-108.33L640.36-108.33Q640.36-110.81 638.75-112.42L638.75-112.42L638.75-112.42Q637.14-114.03 634.66-114.03L634.66-114.03L634.66-114.03Q632.18-114.03 630.65-112.42L630.65-112.42L630.65-112.42Q629.11-110.81 629.11-108.33L629.11-108.33L629.11-75.63ZM669.56-9.49L669.56-9.49Q661.23-9.49 654.52-13.50L654.52-13.50L654.52-13.50Q647.80-17.52 643.93-24.45L643.93-24.45L643.93-24.45Q640.06-31.39 640.06-40.00L640.06-40.00L640.06-40.00Q640.06-42.49 640.21-43.65L640.21-43.65L640.21-43.65Q640.36-43.95 640.36-44.38L640.36-44.38L640.36-44.38Q641.82-55.77 649.92-63.07L649.92-63.07L649.92-63.07Q658.02-70.37 669.56-70.37L669.56-70.37L669.56-70.37Q677.88-70.37 684.67-66.43L684.67-66.43L684.67-66.43Q691.46-62.49 695.32-55.55L695.32-55.55L695.32-55.55Q699.19-48.62 699.19-40.00L699.19-40.00L699.19-40.00Q699.19-31.39 695.32-24.45L695.32-24.45L695.32-24.45Q691.46-17.52 684.67-13.50L684.67-13.50L684.67-13.50Q677.88-9.49 669.56-9.49L669.56-9.49ZM768.25-80.74L768.25-80.74Q774.38-80.74 777.96-79.13L777.96-79.13L777.96-79.13Q781.54-77.53 781.54-74.61L781.54-74.61L781.54-74.61Q781.54-73.73 781.39-73.29L781.39-73.29L781.39-73.29Q780.81-71.25 779.57-70.52L779.57-70.52L779.57-70.52Q778.33-69.79 776.14-69.79L776.14-69.79L776.14-69.79Q774.82-69.79 771.61-70.08L771.61-70.08L771.61-70.08Q770.44-70.23 768.11-70.23L768.11-70.23L768.11-70.23Q757.16-70.23 750.22-64.39L750.22-64.39L750.22-64.39Q743.29-58.55 743.29-49.20L743.29-49.20L743.29-5.55L743.29-5.55Q743.29-2.92 741.83-1.46L741.83-1.46L741.83-1.46Q740.37 0 737.74 0L737.74 0L737.74 0Q735.11 0 733.65-1.46L733.65-1.46L733.65-1.46Q732.19-2.92 732.19-5.55L732.19-5.55L732.19-74.31L732.19-74.31Q732.19-76.94 733.65-78.40L733.65-78.40L733.65-78.40Q735.11-79.86 737.74-79.86L737.74-79.86L737.74-79.86Q740.37-79.86 741.83-78.40L741.83-78.40L741.83-78.40Q743.29-76.94 743.29-74.31L743.29-74.31L743.29-67.89L743.29-67.89Q747.52-74.02 754.09-77.38L754.09-77.38L754.09-77.38Q760.66-80.74 768.25-80.74L768.25-80.74ZM835.41-80.59L835.41-80.59Q846.80-80.59 856.07-75.26L856.07-75.26L856.07-75.26Q865.34-69.93 870.67-60.59L870.67-60.59L870.67-60.59Q876.00-51.25 876.00-39.86L876.00-39.86L876.00-5.55L876.00-5.55Q876.00-3.21 874.39-1.61L874.39-1.61L874.39-1.61Q872.79 0 870.31 0L870.31 0L870.31 0Q867.82 0 866.22-1.53L866.22-1.53L866.22-1.53Q864.61-3.07 864.61-5.55L864.61-5.55L864.61-14.31L864.61-14.31Q859.50-7.30 851.62-3.28L851.62-3.28L851.62-3.28Q843.73 0.73 834.24 0.73L834.24 0.73L834.24 0.73Q823.15 0.73 814.17-4.60L814.17-4.60L814.17-4.60Q805.19-9.93 800.01-19.20L800.01-19.20L800.01-19.20Q794.82-28.47 794.82-39.86L794.82-39.86L794.82-39.86Q794.82-51.25 800.15-60.59L800.15-60.59L800.15-60.59Q805.48-69.93 814.75-75.26L814.75-75.26L814.75-75.26Q824.02-80.59 835.41-80.59L835.41-80.59ZM835.41-9.49L835.41-9.49Q843.73-9.49 850.45-13.43L850.45-13.43L850.45-13.43Q857.17-17.37 861.03-24.31L861.03-24.31L861.03-24.31Q864.90-31.24 864.90-39.86L864.90-39.86L864.90-39.86Q864.90-48.47 861.03-55.41L861.03-55.41L861.03-55.41Q857.17-62.34 850.45-66.36L850.45-66.36L850.45-66.36Q843.73-70.37 835.41-70.37L835.41-70.37L835.41-70.37Q827.09-70.37 820.30-66.36L820.30-66.36L820.30-66.36Q813.51-62.34 809.64-55.41L809.64-55.41L809.64-55.41Q805.77-48.47 805.77-39.86L805.77-39.86L805.77-39.86Q805.77-31.24 809.64-24.31L809.64-24.31L809.64-24.31Q813.51-17.37 820.30-13.43L820.30-13.43L820.30-13.43Q827.09-9.49 835.41-9.49L835.41-9.49ZM933.96-80.74L933.96-80.74Q940.09-80.74 943.67-79.13L943.67-79.13L943.67-79.13Q947.25-77.53 947.25-74.61L947.25-74.61L947.25-74.61Q947.25-73.73 947.10-73.29L947.10-73.29L947.10-73.29Q946.52-71.25 945.28-70.52L945.28-70.52L945.28-70.52Q944.04-69.79 941.85-69.79L941.85-69.79L941.85-69.79Q940.53-69.79 937.32-70.08L937.32-70.08L937.32-70.08Q936.15-70.23 933.82-70.23L933.82-70.23L933.82-70.23Q922.87-70.23 915.93-64.39L915.93-64.39L915.93-64.39Q909.00-58.55 909.00-49.20L909.00-49.20L909.00-5.55L909.00-5.55Q909.00-2.92 907.54-1.46L907.54-1.46L907.54-1.46Q906.08 0 903.45 0L903.45 0L903.45 0Q900.82 0 899.36-1.46L899.36-1.46L899.36-1.46Q897.90-2.92 897.90-5.55L897.90-5.55L897.90-74.31L897.90-74.31Q897.90-76.94 899.36-78.40L899.36-78.40L899.36-78.40Q900.82-79.86 903.45-79.86L903.45-79.86L903.45-79.86Q906.08-79.86 907.54-78.40L907.54-78.40L907.54-78.40Q909.00-76.94 909.00-74.31L909.00-74.31L909.00-67.89L909.00-67.89Q913.23-74.02 919.80-77.38L919.80-77.38L919.80-77.38Q926.37-80.74 933.96-80.74L933.96-80.74ZM1027.26-79.42L1027.26-79.42Q1030.61-78.11 1030.61-75.19L1030.61-75.19L1030.61-75.19Q1030.61-73.88 1030.03-72.56L1030.03-72.56L982.73 31.39L982.73 31.39Q981.41 34.75 978.49 34.75L978.49 34.75L978.49 34.75Q977.03 34.75 975.86 34.16L975.86 34.16L975.86 34.16Q972.51 32.85 972.51 29.78L972.51 29.78L972.51 29.78Q972.51 28.47 973.09 27.16L973.09 27.16L987.54-4.82L987.54-4.96L954.99-72.42L954.99-72.42Q954.40-73.58 954.40-75.04L954.40-75.04L954.40-75.04Q954.40-78.11 957.61-79.42L957.61-79.42L957.61-79.42Q958.78-80.01 960.24-80.01L960.24-80.01L960.24-80.01Q963.31-80.01 964.62-76.94L964.62-76.94L993.09-16.94L1020.25-76.80L1020.25-76.80Q1021.71-80.01 1024.63-80.01L1024.63-80.01L1024.63-80.01Q1025.94-80.01 1027.26-79.42L1027.26-79.42Z" fill="none" stroke="#fff" stroke-width="2.1"></path></g></g></g><style>text {
  font-size: 64px;
  font-family: Arial Black;
  dominant-baseline: central;
  text-anchor: middle;
}</style></svg>